<svg id="Layer_1" data-name="Layer 1" xmlns="http://www.w3.org/2000/svg" xmlns:xlink="http://www.w3.org/1999/xlink" viewBox="0 0 20 20"><defs><style>.cls-1{fill:none;}.cls-2{clip-path:url(#clip-path);}.cls-3{fill:#fff;}</style><clipPath id="clip-path"><rect class="cls-1" x="-1347.69" width="1200" height="864"/></clipPath></defs><title>searchicon</title><g class="cls-2"><image width="4095" height="4095" transform="translate(-1675.69 -574) scale(0.43)" xlink:href="../../P2/earth.jpg"/></g><path class="cls-3" d="M20,18.46A1.57,1.57,0,0,1,18.46,20a1.41,1.41,0,0,1-1.08-.46l-4.12-4.11a8.22,8.22,0,0,1-4.8,1.49,8.44,8.44,0,0,1-3.29-.66,8.6,8.6,0,0,1-2.7-1.81,8.3,8.3,0,0,1-1.8-2.7,8.41,8.41,0,0,1,0-6.58A8.27,8.27,0,0,1,5.17.67a8.41,8.41,0,0,1,6.58,0,8.3,8.3,0,0,1,2.7,1.8,8.6,8.6,0,0,1,1.81,2.7,8.44,8.44,0,0,1,.66,3.29,8.22,8.22,0,0,1-1.49,4.8l4.13,4.12A1.5,1.5,0,0,1,20,18.46Zm-7.73-6.19a5.23,5.23,0,0,0,1.58-3.81,5.19,5.19,0,0,0-1.58-3.8A5.19,5.19,0,0,0,8.46,3.08a5.15,5.15,0,0,0-3.8,1.58,5.15,5.15,0,0,0-1.58,3.8,5.19,5.19,0,0,0,1.58,3.81,5.19,5.19,0,0,0,3.8,1.58A5.23,5.23,0,0,0,12.27,12.27Z"/></svg>